<svg width="43" height="42" viewBox="0 0 43 42" fill="none" xmlns="http://www.w3.org/2000/svg">
<path d="M21.5 0C9.9017 0 0.5 9.4017 0.5 21C0.5 32.5983 9.9017 42 21.5 42C33.0983 42 42.5 32.5983 42.5 21C42.5 9.4017 33.0983 0 21.5 0ZM27.968 30.9897C27.968 30.9897 27.443 32.3022 26.0024 31.6722L20.6663 27.5793L17.2433 30.6999C17.2433 30.6999 16.9766 30.9015 16.6847 30.7755C16.6847 30.7755 16.4327 30.7524 16.1177 29.7549C15.8027 28.7574 14.2046 23.5137 14.2046 23.5137L8.9 21.7329C8.9 21.7329 8.0873 21.4452 8.0075 20.8131C7.9298 20.1831 8.9252 19.8429 8.9252 19.8429L29.9882 11.5815C29.9882 11.5815 31.7186 10.8213 31.7186 12.0813L27.968 30.9897Z" fill="#04A5FF"/>
</svg>
