<svg width="17" height="18" viewBox="0 0 17 18" fill="none" xmlns="http://www.w3.org/2000/svg">
<path d="M8.5 0.0101318C3.80545 0.0101318 0 3.82517 0 8.53154C0 13.2379 3.80545 17.053 8.5 17.053C13.1945 17.053 17 13.2379 17 8.53154C17 3.82517 13.1945 0.0101318 8.5 0.0101318ZM11.118 12.5852C11.118 12.5852 10.9055 13.1178 10.3224 12.8621L8.16255 11.2013L6.77705 12.4676C6.77705 12.4676 6.6691 12.5494 6.55095 12.4983C6.55095 12.4983 6.44895 12.4889 6.32145 12.0841C6.19395 11.6794 5.5471 9.55155 5.5471 9.55155L3.4 8.82894C3.4 8.82894 3.07105 8.7122 3.03875 8.4557C3.0073 8.20006 3.4102 8.06201 3.4102 8.06201L11.9357 4.70969C11.9357 4.70969 12.6361 4.40121 12.6361 4.9125L11.118 12.5852Z" fill="black"/>
</svg>
