<svg width="17" height="18" viewBox="0 0 17 18" fill="none" xmlns="http://www.w3.org/2000/svg">
<path d="M7.79911 0.290827C3.43259 0.50173 -0.0132083 4.19056 3.8063e-05 8.62497C0.00407129 9.97558 0.325503 11.2504 0.892527 12.3768L0.021944 16.6635C-0.0251498 16.8954 0.181019 17.0985 0.408105 17.0439L4.549 16.0487C5.61286 16.5863 6.80781 16.8968 8.07246 16.9164C12.5355 16.9855 16.2568 13.3907 16.3959 8.86516C16.545 4.01403 12.5981 0.0589867 7.79911 0.290827ZM12.7401 13.2047C11.5274 14.4349 9.91501 15.1123 8.20002 15.1123C7.19582 15.1123 6.23441 14.8838 5.3424 14.4331L4.76573 14.1417L2.22693 14.7518L2.76133 12.1203L2.47723 11.5559C2.01416 10.636 1.77936 9.64118 1.77936 8.59922C1.77936 6.8595 2.44722 5.22394 3.65991 3.99374C4.86177 2.77457 6.50045 2.08607 8.20014 2.08607C9.91513 2.08611 11.5274 2.76358 12.7401 3.9937C13.9528 5.22386 14.6207 6.85942 14.6207 8.5991C14.6207 10.3233 13.9419 11.9856 12.7401 13.2047Z" fill="white"/>
<path d="M12.1796 10.4031L10.5912 9.9405C10.3824 9.87969 10.1575 9.93978 10.0054 10.0971L9.61696 10.4985C9.45318 10.6678 9.20466 10.7221 8.98789 10.6332C8.23652 10.3247 6.65597 8.89918 6.25234 8.18613C6.13589 7.98045 6.15514 7.7233 6.29812 7.53562L6.63723 7.09059C6.77009 6.91623 6.79813 6.68206 6.71026 6.4805L6.04201 4.94735C5.88195 4.58013 5.41936 4.47324 5.11714 4.73251C4.67384 5.11284 4.14786 5.6908 4.08392 6.33109C3.97119 7.45997 4.44846 8.88302 6.25325 10.5917C8.33826 12.5658 10.0079 12.8266 11.0951 12.5595C11.7117 12.408 12.2044 11.8006 12.5154 11.3033C12.7274 10.9643 12.56 10.514 12.1796 10.4031Z" fill="white"/>
</svg>
