<svg width="42" height="41" viewBox="0 0 42 41" fill="none" xmlns="http://www.w3.org/2000/svg">
<path d="M19.9978 0.0237108C9.08147 0.539282 0.466979 9.55697 0.500095 20.3973C0.510178 23.699 1.31376 26.8154 2.73132 29.5689L0.55486 40.0483C0.437125 40.6152 0.952548 41.1115 1.52026 40.9782L11.8725 38.5453C14.5322 39.8595 17.5195 40.6185 20.6811 40.6663C31.8386 40.8354 41.142 32.0476 41.4898 20.9844C41.8626 9.12543 31.9952 -0.543045 19.9978 0.0237108ZM32.3502 31.5929C29.3185 34.6001 25.2875 36.2562 21 36.2562C18.4896 36.2562 16.086 35.6975 13.856 34.5957L12.4143 33.8833L6.06733 35.3749L7.40333 28.9419L6.69307 27.5622C5.5354 25.3134 4.9484 22.8815 4.9484 20.3343C4.9484 16.0814 6.61804 12.0831 9.64978 9.07581C12.6544 6.09544 16.7511 4.41234 21.0003 4.41234C25.2878 4.41244 29.3186 6.06858 32.3503 9.07572C35.382 12.083 37.0517 16.0812 37.0518 20.334C37.0517 24.549 35.3549 28.6126 32.3502 31.5929Z" fill="#7AD06D"/>
<path d="M30.9484 24.7442L26.9776 23.6132C26.4555 23.4645 25.8933 23.6114 25.5129 23.9959L24.5419 24.9772C24.1324 25.391 23.5112 25.524 22.9692 25.3065C21.0908 24.5525 17.1394 21.0676 16.1304 19.3245C15.8392 18.8217 15.8874 18.193 16.2448 17.7342L17.0926 16.6463C17.4247 16.2201 17.4948 15.6476 17.2752 15.1549L15.6045 11.407C15.2044 10.5093 14.0479 10.248 13.2924 10.8818C12.1841 11.8115 10.8692 13.2244 10.7093 14.7897C10.4275 17.5493 11.6206 21.0281 16.1326 25.2052C21.3452 30.031 25.5194 30.6685 28.2371 30.0155C29.7787 29.6451 31.0106 28.1604 31.7881 26.9447C32.3181 26.1158 31.8996 25.0151 30.9484 24.7442Z" fill="#7AD06D"/>
</svg>
